<svg version="1.1" id="Layer_1" xmlns="http://www.w3.org/2000/svg" xmlns:xlink="http://www.w3.org/1999/xlink" x="0px" y="0px"
	 width="100%" viewBox="0 0 373 407" enable-background="new 0 0 373 407" xml:space="preserve">
<path fill="#FFFFFF" opacity="1.000000" stroke="none" 
	d="
M239.000000,408.000000 
	C159.333344,408.000000 80.166695,408.000000 1.000032,408.000000 
	C1.000021,272.333374 1.000021,136.666748 1.000011,1.000087 
	C125.333275,1.000058 249.666550,1.000058 373.999878,1.000029 
	C373.999908,136.666580 373.999908,272.333160 373.999939,407.999878 
	C329.166656,408.000000 284.333344,408.000000 239.000000,408.000000 
M164.426636,312.661407 
	C165.340652,313.004791 166.228012,313.477112 167.172607,313.672485 
	C185.645020,317.492920 204.091629,321.449890 222.613541,325.015015 
	C234.408951,327.285431 232.668900,329.695679 237.698303,318.182922 
	C246.804245,297.338562 255.795639,276.414154 265.871765,256.035889 
	C271.133606,245.394211 271.972504,234.167603 273.780914,222.990021 
	C274.798981,216.697327 274.730896,210.236496 275.376221,203.874146 
	C276.381470,193.963379 277.635742,184.078064 278.677612,174.170731 
	C279.949951,162.071762 281.056793,149.955307 282.343567,137.857941 
	C283.036621,131.342316 284.023987,124.858437 284.757294,118.346573 
	C285.764648,109.401321 286.721069,100.449203 287.572205,91.487953 
	C288.012299,86.854263 288.178192,82.194534 288.470490,77.505936 
	C266.304871,75.193924 244.652771,72.935478 222.645737,70.640015 
	C218.758484,107.171974 214.955643,142.910568 211.152802,178.649155 
	C208.617966,171.636093 206.984909,164.662598 205.624680,157.636307 
	C203.136734,144.784821 200.987701,131.865677 198.357468,119.044456 
	C196.412689,109.564529 193.991119,100.179138 191.575027,90.804977 
	C191.366272,89.994995 189.502457,88.945007 188.582855,89.093399 
	C182.785065,90.028954 177.027664,91.227509 171.274063,92.421745 
	C156.427109,95.503418 141.589066,98.628052 126.430870,101.801811 
	C126.430870,103.559715 126.177750,105.059883 126.473183,106.442879 
	C128.035751,113.757538 129.827744,121.023430 131.371689,128.341782 
	C135.735352,149.025345 140.000214,169.729736 144.340317,190.418289 
	C145.767990,197.223694 145.842255,197.325638 139.053391,198.740295 
	C126.347488,201.387970 113.607117,203.869705 100.889107,206.459869 
	C86.476791,209.395096 72.074203,212.378036 57.665211,215.329620 
	C54.738644,215.929108 52.195454,216.734161 53.332355,220.679138 
	C54.742802,225.573288 56.234531,230.455948 57.355953,235.419312 
	C61.421730,253.414230 65.286034,271.454895 69.419563,289.433899 
	C69.837265,291.250671 71.247643,293.764954 72.738083,294.232788 
	C76.909088,295.541992 81.375900,295.884552 85.704063,296.721863 
	C98.490303,299.195465 111.282928,301.640900 124.041100,304.253387 
	C137.230820,306.954285 150.383087,309.838196 164.426636,312.661407 
z"/>
<path fill="#04CEBC" opacity="1.000000" stroke="none" 
	d="
M163.989197,312.651733 
	C150.383087,309.838196 137.230820,306.954285 124.041100,304.253387 
	C111.282928,301.640900 98.490303,299.195465 85.704063,296.721863 
	C81.375900,295.884552 76.909088,295.541992 72.738083,294.232788 
	C71.247643,293.764954 69.837265,291.250671 69.419563,289.433899 
	C65.286034,271.454895 61.421730,253.414230 57.355953,235.419312 
	C56.234531,230.455948 54.742802,225.573288 53.332355,220.679138 
	C52.195454,216.734161 54.738644,215.929108 57.665211,215.329620 
	C72.074203,212.378036 86.476791,209.395096 100.889107,206.459869 
	C113.607117,203.869705 126.347488,201.387970 139.053391,198.740295 
	C145.842255,197.325638 145.767990,197.223694 144.340317,190.418289 
	C140.000214,169.729736 135.735352,149.025345 131.371689,128.341782 
	C129.827744,121.023430 128.035751,113.757538 126.473183,106.442879 
	C126.177750,105.059883 126.430870,103.559715 126.430870,101.801811 
	C141.589066,98.628052 156.427109,95.503418 171.274063,92.421745 
	C177.027664,91.227509 182.785065,90.028954 188.582855,89.093399 
	C189.502457,88.945007 191.366272,89.994995 191.575027,90.804977 
	C193.991119,100.179138 196.412689,109.564529 198.357468,119.044456 
	C200.987701,131.865677 203.136734,144.784821 205.624680,157.636307 
	C206.984909,164.662598 208.617966,171.636093 211.152802,178.649155 
	C214.955643,142.910568 218.758484,107.171974 222.645737,70.640015 
	C244.652771,72.935478 266.304871,75.193924 288.470490,77.505936 
	C288.178192,82.194534 288.012299,86.854263 287.572205,91.487953 
	C286.721069,100.449203 285.764648,109.401321 284.757294,118.346573 
	C284.023987,124.858437 283.036621,131.342316 282.343567,137.857941 
	C281.056793,149.955307 279.949951,162.071762 278.677612,174.170731 
	C277.635742,184.078064 276.381470,193.963379 275.376221,203.874146 
	C274.730896,210.236496 274.798981,216.697327 273.780914,222.990021 
	C271.972504,234.167603 271.133606,245.394211 265.871765,256.035889 
	C255.795639,276.414154 246.804245,297.338562 237.698303,318.182922 
	C232.668900,329.695679 234.408951,327.285431 222.613541,325.015015 
	C204.091629,321.449890 185.645020,317.492920 167.172607,313.672485 
	C166.228012,313.477112 165.340652,313.004791 163.989197,312.651733 
M164.730072,236.172089 
	C166.645142,235.795395 168.688766,235.723373 170.449249,234.980392 
	C174.455002,233.289841 177.073975,227.389786 175.915955,223.316422 
	C174.080414,216.859833 169.282532,213.969193 161.709045,216.300919 
	C158.280701,217.356445 155.509369,220.468246 155.544739,225.435852 
	C155.588867,231.637619 158.907379,234.296066 164.730072,236.172089 
M198.176437,245.051224 
	C197.689621,251.517517 201.437820,256.679504 207.121994,257.371002 
	C211.905960,257.952972 217.290115,254.470154 218.184326,250.215179 
	C219.439590,244.242249 216.110123,238.236191 210.730942,236.769943 
	C206.239136,235.545578 200.542664,239.098541 198.176437,245.051224 
z"/>
<path fill="#FCFEFD" opacity="1.000000" stroke="none" 
	d="
M164.326050,236.133041 
	C158.907379,234.296066 155.588867,231.637619 155.544739,225.435852 
	C155.509369,220.468246 158.280701,217.356445 161.709045,216.300919 
	C169.282532,213.969193 174.080414,216.859833 175.915955,223.316422 
	C177.073975,227.389786 174.455002,233.289841 170.449249,234.980392 
	C168.688766,235.723373 166.645142,235.795395 164.326050,236.133041 
z"/>
<path fill="#FEFEFE" opacity="1.000000" stroke="none" 
	d="
M198.376099,244.701263 
	C200.542664,239.098541 206.239136,235.545578 210.730942,236.769943 
	C216.110123,238.236191 219.439590,244.242249 218.184326,250.215179 
	C217.290115,254.470154 211.905960,257.952972 207.121994,257.371002 
	C201.437820,256.679504 197.689621,251.517517 198.376099,244.701263 
z"/>
</svg>